Coordinates
version=1
nRows=8
nColumns=33
inDegrees=yes

Units are S.I. units (second, meters, Newtons, ...)
Angles are in degrees.

endheader
time	ground_thorax_rot_x	ground_thorax_rot_y	ground_thorax_rot_z	ground_thorax_tx	ground_thorax_ty	ground_thorax_tz	clav_prot_r	clav_elev_r	scapula_abduction_r	scapula_elevation_r	scapula_upward_rot_r	scapula_winging_r	shoulder_elv_r	plane_of_elev_r	axial_rot_r	elbow_flexion_r	pro_sup_r	wrist_flex_r	wrist_dev_r	clav_prot_l	clav_elev_l	scapula_abduction_l	scapula_elevation_l	scapula_upward_rot_l	scapula_winging_l	shoulder_elv_l	plane_of_elev_l	axial_rot_l	elbow_flexion_l	pro_sup_l	wrist_flex_l	wrist_dev_l
      6.53000000	     38.12850468	     14.68229532	     20.52225707	   -155.34885658	    799.78975849	      5.23067111	     15.27720454	     41.22707057	     40.26571966	     45.00000000	    -28.60138838	   1712.20417291	  -2817.63174976	     31.89433233	     49.45585728	   1810.98821623	      4.61904172	     17.31994106	     12.85472402	      5.44144063	    -45.00000000	    -35.57404623	     45.00000000	    -42.48783365	  -2428.52338737	    432.53251961	     21.30613652	    -55.23509662	    381.30769959	    141.17199643	     -4.03157351	    -13.41088598
      6.54000000	     37.86943492	     15.32419547	     21.36345468	   -151.65419101	    797.51450955	      5.30108255	     14.81319154	     40.90285658	     40.10768627	     45.00000000	    -29.18600094	   1712.20478293	  -2817.79555482	     32.17523454	     49.27534571	   1811.11526708	      8.87346831	     17.53947913	     12.52361226	      5.81641285	    -45.00000000	    -35.30902677	     45.00000000	    -44.32624851	  -2428.90088063	    431.88914042	     22.91445064	    -45.53026173	    369.49962609	     11.07208138	      9.41977330	    -18.31888335
      6.55000000	     37.68298432	     15.49656396	     21.55796189	   -147.97090591	    795.25561513	      5.37736746	     14.50211512	     40.90915830	     39.87840829	     45.00000000	    -29.42706646	   1712.45232810	  -2818.06575594	     32.42040238	     49.18405486	   1810.87157371	      8.29494275	     17.37082659	     12.87271640	      6.32688033	    -45.00000000	    -35.60590048	     45.00000000	    -43.69876664	  -2429.09305815	    431.55351599	     22.68218356	    -46.37160863	    369.41391512	     11.36685199	      9.57794189	    -18.19306257
      6.56000000	     37.58170296	     15.65586468	     21.89784877	   -144.30322621	    793.03000110	      5.45826960	     14.93560914	     41.06390991	     40.03232952	     45.00000000	    -29.40428250	   1712.65676611	  -2818.37580748	     32.17685388	     49.65849313	   1810.72631130	      7.99926737	     17.22853440	     13.12767524	      5.89441132	    -45.00000000	    -35.41242893	     45.00000000	    -43.80771915	  -2429.54120876	    431.36416103	     22.53644040	    -46.49342801	    369.25353616	     11.78142597	      9.69312654	    -18.11240552
      6.57000000	     37.45696470	     15.83518606	     22.19458295	   -140.65825292	    790.85397752	      5.54551862	     15.11301600	     41.11486977	     40.04250350	     45.00000000	    -29.30332410	   1712.90516247	  -2818.66870420	     31.94344285	     50.16852791	   1810.64111052	      7.93263792	     17.10996205	     13.32135664	      5.71641928	    -45.00000000	    -35.26585776	     45.00000000	    -44.00986782	  -2429.93108016	    431.17319166	     22.51675037	    -46.61830933	    369.10019513	     12.42822340	      9.79932973	    -18.05331273
      6.58000000	     37.26582458	     16.22710737	     22.78654334	   -137.04032579	    788.74202481	      5.64025017	     14.66860636	     40.91634646	     39.90255786	     45.00000000	    -29.70628305	   1713.04865730	  -2818.94688700	     32.12256406	     50.40973571	   1810.42224341	      8.02271877	     16.96275027	     13.41633037	      6.23718370	    -45.00000000	    -35.09873922	     45.00000000	    -44.57157745	  -2430.14305215	    430.85973080	     22.60293668	    -47.08364276	    368.88746775	     13.10769217	      9.84090461	    -17.99341760
      6.59000000	     37.22781472	     16.15449339	     22.87285319	   -133.44576368	    786.70262532	      5.74421704	     15.15422174	     41.24006483	     40.03631020	     45.00000000	    -29.40954009	   1713.23216256	  -2819.28059815	     31.94689942	     51.00502951	   1810.35611105	      8.34072492	     16.89430963	     13.62662889	      5.70105596	    -45.00000000	    -35.14541698	     45.00000000	    -44.32067054	  -2430.58056035	    430.68679626	     22.30654465	    -47.46388322	    368.80500335	     13.93498827	      9.82945885	    -17.98849065
      6.60000000	     37.09224434	     16.46527114	     23.28695595	   -129.87841122	    784.74785919	      5.85949920	     15.34723308	     41.21862102	     40.02524328	     45.00000000	    -29.48627580	   1713.50195395	  -2819.51536777	     31.69012507	     51.45421735	   1810.23607788	      8.80518571	     16.83956765	     13.71074996	      5.56412699	    -45.00000000	    -34.90821548	     45.00000000	    -44.89170528	  -2431.03876950	    430.55446041	     22.32589876	    -47.43255874	    368.64355072	     14.83248421	      9.89811624	    -17.96315726
